<svg width="20" height="756" viewBox="0 0 20 756" fill="none" xmlns="http://www.w3.org/2000/svg">
<line x1="10" y1="4.37114e-08" x2="10" y2="77" stroke="#D434FE" stroke-width="2"/>
<rect x="0.680664" y="81.6807" width="19.3195" height="19.3195" rx="9.65977" fill="url(#paint0_linear_114_811)"/>
<path d="M10.0999 96.0542V88.3742L10.9399 89.2142H8.41994V87.6542H12.0439V96.0542H10.0999Z" fill="white"/>
<line x1="10" y1="128" x2="10" y2="205" stroke="#D434FE" stroke-width="2"/>
<line x1="10" y1="256" x2="10" y2="333" stroke="#D434FE" stroke-width="2"/>
<line x1="10" y1="524" x2="10" y2="601" stroke="#D434FE" stroke-width="2"/>
<line x1="10" y1="653" x2="10" y2="730" stroke="#D434FE" stroke-width="2"/>
<line x1="10" y1="384" x2="10" y2="474" stroke="#D434FE" stroke-width="2"/>
<rect x="0.680664" y="209.681" width="19.3195" height="19.3195" rx="9.65977" fill="url(#paint1_linear_114_811)"/>
<path d="M7.73194 224.054V222.794L10.9719 219.734C11.2279 219.502 11.4159 219.294 11.5359 219.11C11.6559 218.926 11.7359 218.758 11.7759 218.606C11.8239 218.454 11.8479 218.314 11.8479 218.186C11.8479 217.85 11.7319 217.594 11.4999 217.418C11.2759 217.234 10.9439 217.142 10.5039 217.142C10.1519 217.142 9.82394 217.21 9.51994 217.346C9.22394 217.482 8.97194 217.694 8.76394 217.982L7.34794 217.07C7.66794 216.59 8.11594 216.21 8.69194 215.93C9.26794 215.65 9.93194 215.51 10.6839 215.51C11.3079 215.51 11.8519 215.614 12.3159 215.822C12.7879 216.022 13.1519 216.306 13.4079 216.674C13.6719 217.042 13.8039 217.482 13.8039 217.994C13.8039 218.266 13.7679 218.538 13.6959 218.81C13.6319 219.074 13.4959 219.354 13.2879 219.65C13.0879 219.946 12.7919 220.278 12.3999 220.646L9.71194 223.178L9.33994 222.47H14.0799V224.054H7.73194Z" fill="white"/>
<rect x="0.680664" y="337.681" width="19.3195" height="19.3195" rx="9.65977" fill="url(#paint2_linear_114_811)"/>
<path d="M10.5279 352.198C9.94394 352.198 9.36394 352.122 8.78794 351.97C8.21194 351.81 7.72394 351.586 7.32394 351.298L8.07994 349.81C8.39994 350.042 8.77194 350.226 9.19594 350.362C9.61994 350.498 10.0479 350.566 10.4799 350.566C10.9679 350.566 11.3519 350.47 11.6319 350.278C11.9119 350.086 12.0519 349.822 12.0519 349.486C12.0519 349.166 11.9279 348.914 11.6799 348.73C11.4319 348.546 11.0319 348.454 10.4799 348.454H9.59194V347.17L11.9319 344.518L12.1479 345.214H7.74394V343.654H13.6239V344.914L11.2959 347.566L10.3119 347.002H10.8759C11.9079 347.002 12.6879 347.234 13.2159 347.698C13.7439 348.162 14.0079 348.758 14.0079 349.486C14.0079 349.958 13.8839 350.402 13.6359 350.818C13.3879 351.226 13.0079 351.558 12.4959 351.814C11.9839 352.07 11.3279 352.198 10.5279 352.198Z" fill="white"/>
<rect x="0.680664" y="481.681" width="19.3195" height="19.3195" rx="9.65977" fill="url(#paint3_linear_114_811)"/>
<path d="M6.70794 493.29V491.982L10.6679 486.654H12.7079L8.83194 491.982L7.88394 491.706H14.4959V493.29H6.70794ZM11.2319 495.054V493.29L11.2919 491.706V490.134H13.1279V495.054H11.2319Z" fill="white"/>
<rect x="0.680664" y="607" width="19.3195" height="19.3195" rx="9.65977" fill="url(#paint4_linear_114_811)"/>
<path d="M10.6599 620.518C10.0759 620.518 9.49594 620.442 8.91994 620.29C8.35194 620.13 7.86394 619.906 7.45594 619.618L8.22394 618.13C8.54394 618.362 8.91194 618.546 9.32794 618.682C9.75194 618.818 10.1799 618.886 10.6119 618.886C11.0999 618.886 11.4839 618.79 11.7639 618.598C12.0439 618.406 12.1839 618.138 12.1839 617.794C12.1839 617.578 12.1279 617.386 12.0159 617.218C11.9039 617.05 11.7039 616.922 11.4159 616.834C11.1359 616.746 10.7399 616.702 10.2279 616.702H8.07994L8.51194 611.974H13.6359V613.534H9.20794L10.2159 612.646L9.91594 616.018L8.90794 615.13H10.6839C11.5159 615.13 12.1839 615.246 12.6879 615.478C13.1999 615.702 13.5719 616.01 13.8039 616.402C14.0359 616.794 14.1519 617.238 14.1519 617.734C14.1519 618.23 14.0279 618.69 13.7799 619.114C13.5319 619.53 13.1479 619.87 12.6279 620.134C12.1159 620.39 11.4599 620.518 10.6599 620.518Z" fill="white"/>
<rect x="0.680664" y="736" width="19.3195" height="19.3195" rx="9.65977" fill="url(#paint5_linear_114_811)"/>
<path d="M10.5599 749.518C9.79194 749.518 9.12394 749.358 8.55594 749.038C7.99594 748.718 7.56394 748.25 7.25994 747.634C6.95594 747.018 6.80394 746.258 6.80394 745.354C6.80394 744.386 6.98394 743.566 7.34394 742.894C7.71194 742.222 8.21594 741.71 8.85594 741.358C9.50394 741.006 10.2479 740.83 11.0879 740.83C11.5359 740.83 11.9639 740.878 12.3719 740.974C12.7799 741.07 13.1319 741.214 13.4279 741.406L12.7079 742.834C12.4759 742.674 12.2279 742.566 11.9639 742.51C11.6999 742.446 11.4239 742.414 11.1359 742.414C10.4079 742.414 9.83194 742.634 9.40794 743.074C8.98394 743.514 8.77194 744.166 8.77194 745.03C8.77194 745.174 8.77194 745.334 8.77194 745.51C8.77994 745.686 8.80394 745.862 8.84394 746.038L8.30394 745.534C8.45594 745.222 8.65194 744.962 8.89194 744.754C9.13194 744.538 9.41594 744.378 9.74394 744.274C10.0799 744.162 10.4479 744.106 10.8479 744.106C11.3919 744.106 11.8799 744.214 12.3119 744.43C12.7439 744.646 13.0879 744.95 13.3439 745.342C13.6079 745.734 13.7399 746.194 13.7399 746.722C13.7399 747.29 13.5959 747.786 13.3079 748.21C13.0279 748.626 12.6479 748.95 12.1679 749.182C11.6959 749.406 11.1599 749.518 10.5599 749.518ZM10.4519 748.066C10.7239 748.066 10.9639 748.018 11.1719 747.922C11.3879 747.818 11.5559 747.67 11.6759 747.478C11.7959 747.286 11.8559 747.066 11.8559 746.818C11.8559 746.434 11.7239 746.13 11.4599 745.906C11.2039 745.674 10.8599 745.558 10.4279 745.558C10.1399 745.558 9.88794 745.614 9.67194 745.726C9.45594 745.83 9.28394 745.978 9.15594 746.17C9.03594 746.354 8.97594 746.57 8.97594 746.818C8.97594 747.058 9.03594 747.274 9.15594 747.466C9.27594 747.65 9.44394 747.798 9.65994 747.91C9.87594 748.014 10.1399 748.066 10.4519 748.066Z" fill="white"/>
<defs>
<linearGradient id="paint0_linear_114_811" x1="20.0002" y1="81.6807" x2="0.680664" y2="81.6807" gradientUnits="userSpaceOnUse">
<stop stop-color="#903AFF"/>
<stop offset="1" stop-color="#D434FE"/>
</linearGradient>
<linearGradient id="paint1_linear_114_811" x1="20.0002" y1="209.681" x2="0.680664" y2="209.681" gradientUnits="userSpaceOnUse">
<stop stop-color="#903AFF"/>
<stop offset="1" stop-color="#D434FE"/>
</linearGradient>
<linearGradient id="paint2_linear_114_811" x1="20.0002" y1="337.681" x2="0.680664" y2="337.681" gradientUnits="userSpaceOnUse">
<stop stop-color="#903AFF"/>
<stop offset="1" stop-color="#D434FE"/>
</linearGradient>
<linearGradient id="paint3_linear_114_811" x1="20.0002" y1="481.681" x2="0.680664" y2="481.681" gradientUnits="userSpaceOnUse">
<stop stop-color="#903AFF"/>
<stop offset="1" stop-color="#D434FE"/>
</linearGradient>
<linearGradient id="paint4_linear_114_811" x1="20.0002" y1="607" x2="0.680664" y2="607" gradientUnits="userSpaceOnUse">
<stop stop-color="#903AFF"/>
<stop offset="1" stop-color="#D434FE"/>
</linearGradient>
<linearGradient id="paint5_linear_114_811" x1="20.0002" y1="736" x2="0.680664" y2="736" gradientUnits="userSpaceOnUse">
<stop stop-color="#903AFF"/>
<stop offset="1" stop-color="#D434FE"/>
</linearGradient>
</defs>
</svg>
