<svg width="18" height="30" viewBox="0 0 18 30" fill="none" xmlns="http://www.w3.org/2000/svg">
<path d="M8.76 29.52C7.08 29.52 5.68 28.12 5.68 26.4C5.68 24.72 7.08 23.32 8.76 23.32C10.48 23.32 11.88 24.72 11.88 26.4C11.88 28.12 10.48 29.52 8.76 29.52ZM8.76 23.68C7.28 23.68 6.04 24.92 6.04 26.4C6.04 27.92 7.28 29.16 8.76 29.16C10.28 29.16 11.52 27.92 11.52 26.4C11.52 24.92 10.28 23.68 8.76 23.68ZM11.36 19.92V20.08H6.24V19.92C6.24 16.44 8.04 14.52 9.64 12.84C10.88 11.52 11.96 10.36 11.96 8.72C11.96 6.68 10.64 5.44 8.44 5.44C6.04 5.44 5.28 7.28 5.04 8.36L5 8.56L0.08 7.32L0.12 7.16C1.08 3 4.36 0.52 8.8 0.52C13.44 0.52 17.36 3.96 17.36 8C17.36 11.28 15.72 12.96 14.16 14.56C12.72 16.04 11.36 17.4 11.36 19.92ZM6.6 19.72H11.04C11.08 17.2 12.44 15.8 13.92 14.32C15.44 12.76 17.04 11.12 17.04 8C17.04 4.12 13.28 0.88 8.8 0.88C4.56 0.88 1.48 3.2 0.52 7.08L4.72 8.12C5.2 6.2 6.56 5.08 8.44 5.08C10.84 5.08 12.32 6.48 12.32 8.72C12.32 10.48 11.16 11.76 9.88 13.08C8.36 14.68 6.64 16.52 6.6 19.72Z" fill="#A866FD"/>
</svg>
