<svg width="17" height="17" viewBox="0 0 17 17" fill="none" xmlns="http://www.w3.org/2000/svg">
<g id="ri:linkedin-fill">
<path id="Vector" d="M5.22991 3.44961C5.22972 3.81557 5.08417 4.16647 4.82527 4.42511C4.56637 4.68375 4.21533 4.82895 3.84937 4.82877C3.48341 4.82858 3.13252 4.68303 2.87387 4.42413C2.61523 4.16523 2.47003 3.81419 2.47022 3.44823C2.4704 3.08227 2.61595 2.73138 2.87485 2.47274C3.13375 2.21409 3.48479 2.06889 3.85075 2.06908C4.21671 2.06926 4.5676 2.21481 4.82625 2.47371C5.08489 2.73261 5.23009 3.08365 5.22991 3.44961ZM5.2713 5.85054H2.51161V14.4884H5.2713V5.85054ZM9.63161 5.85054H6.88572V14.4884H9.60401V9.95558C9.60401 7.43046 12.8949 7.19589 12.8949 9.95558V14.4884H15.6201V9.01729C15.6201 4.76046 10.7493 4.91915 9.60401 7.00961L9.63161 5.85054Z" fill="#F8F8F8"/>
</g>
</svg>
