<svg width="17" height="17" viewBox="0 0 17 17" fill="none" xmlns="http://www.w3.org/2000/svg">
<g id="mdi:instagram">
<path id="Vector" d="M5.38143 1.37985H11.1768C13.3845 1.37985 15.1783 3.17365 15.1783 5.3814V11.1768C15.1783 12.238 14.7567 13.2558 14.0063 14.0063C13.2559 14.7567 12.2381 15.1783 11.1768 15.1783H5.38143C3.17368 15.1783 1.37988 13.3845 1.37988 11.1768V5.3814C1.37988 4.32013 1.80147 3.30232 2.55191 2.55188C3.30235 1.80144 4.32016 1.37985 5.38143 1.37985ZM5.24345 2.7597C4.58472 2.7597 3.95298 3.02137 3.48719 3.48716C3.0214 3.95295 2.75973 4.58469 2.75973 5.24342V11.3147C2.75973 12.6877 3.8705 13.7985 5.24345 13.7985H11.3148C11.9735 13.7985 12.6052 13.5368 13.071 13.071C13.5368 12.6052 13.7985 11.9735 13.7985 11.3147V5.24342C13.7985 3.87047 12.6877 2.7597 11.3148 2.7597H5.24345ZM11.9012 3.79458C12.1299 3.79458 12.3493 3.88544 12.511 4.04717C12.6727 4.2089 12.7636 4.42826 12.7636 4.65698C12.7636 4.88571 12.6727 5.10506 12.511 5.26679C12.3493 5.42853 12.1299 5.51939 11.9012 5.51939C11.6725 5.51939 11.4531 5.42853 11.2914 5.26679C11.1297 5.10506 11.0388 4.88571 11.0388 4.65698C11.0388 4.42826 11.1297 4.2089 11.2914 4.04717C11.4531 3.88544 11.6725 3.79458 11.9012 3.79458ZM8.27911 4.82946C9.194 4.82946 10.0714 5.1929 10.7184 5.83983C11.3653 6.48676 11.7287 7.36418 11.7287 8.27908C11.7287 9.19397 11.3653 10.0714 10.7184 10.7183C10.0714 11.3652 9.194 11.7287 8.27911 11.7287C7.36421 11.7287 6.48679 11.3652 5.83986 10.7183C5.19294 10.0714 4.82949 9.19397 4.82949 8.27908C4.82949 7.36418 5.19294 6.48676 5.83986 5.83983C6.48679 5.1929 7.36421 4.82946 8.27911 4.82946ZM8.27911 6.20931C7.73017 6.20931 7.20372 6.42737 6.81556 6.81553C6.4274 7.20369 6.20934 7.73014 6.20934 8.27908C6.20934 8.82801 6.4274 9.35447 6.81556 9.74262C7.20372 10.1308 7.73017 10.3488 8.27911 10.3488C8.82804 10.3488 9.3545 10.1308 9.74265 9.74262C10.1308 9.35447 10.3489 8.82801 10.3489 8.27908C10.3489 7.73014 10.1308 7.20369 9.74265 6.81553C9.3545 6.42737 8.82804 6.20931 8.27911 6.20931Z" fill="white"/>
</g>
</svg>
